# xmcd
#
# Track frame offsets:
#	150
#	10480
#	31695
#	52705
#	71365
#	90462
#	106027
#	133072
#	159610
#	183242
#	203260
#	233425
#	260195
#	275692
#	290832
#	301197
#
# Disc length: 4456 seconds
#
# Revision: 3
# Processed by: cddbd v1.5.2PL0 Copyright (c) Steve Scherf et al.
# Submitted via: audiograbber 1.83.01
#
DISCID=cd116610
DTITLE=Various Artist - Out Of The Blue  Volume 11
DYEAR=2003
DGENRE=Rock
TTITLE0=Buddy and The Huddle - Baker
TTITLE1=Willard Grant Conspiracy - River In The Pines
TTITLE2=Knife In The Water - Lighthouse To The Blind
TTITLE3=Salvatore - Tempo
TTITLE4=Midnight Choir - Will You Carry Me Across The Water?
TTITLE5=16 Horsepower - Coal Black Horses
TTITLE6=Ai Phoenix - Wishinglot
TTITLE7=Hugo Race and True Spirit - A.M. Radio
TTITLE8=Timesbold - This Field Needs A Reaper
TTITLE9=Edison Woods - Shirts For Pennies
TTITLE10=Woven Hand - Stories And Pictures
TTITLE11=The White Birch - Donau Movies
TTITLE12=Lilium - If They Cheered
TTITLE13=Black Lipstick - Cat Piss Blues
TTITLE14=Granfaloon Bus - Beggar Fatigue
TTITLE15=Sub Oslo - Goatsucker Dub
EXTD=
EXTT0=
EXTT1=
EXTT2=
EXTT3=
EXTT4=
EXTT5=
EXTT6=
EXTT7=
EXTT8=
EXTT9=
EXTT10=
EXTT11=
EXTT12=
EXTT13=
EXTT14=
EXTT15=
PLAYORDER=
